<svg width="20" height="16" xmlns="http://www.w3.org/2000/svg"><title>Rectangle 30 Copy</title><path d="M20 4v5.005a1 1 0 0 1-1.007.995H15v5.005a1 1 0 0 1-1.007.995H1.007A1.008 1.008 0 0 1 0 15.005V10h15V8H0V6.995A1 1 0 0 1 1.007 6H5V4h15zM3.001 11H1.999A.997.997 0 0 0 1 12c0 .556.447 1 .999 1h1.002A.997.997 0 0 0 4 12l-.007-.117A.997.997 0 0 0 3.001 11zm5-6H6.999A.997.997 0 0 0 6 6h3l-.007-.117A.997.997 0 0 0 8.001 5zm10.992-5C19.549 0 20 .456 20 .995V2H5V.995A1 1 0 0 1 6.007 0h12.986z" fill="#7E73FF" fill-rule="evenodd"/></svg>