<svg width="10" height="16" xmlns="http://www.w3.org/2000/svg"><title>Rectangle 127</title><path d="M7.01 9c.546 0 .99.443.99.999v1.002a1 1 0 0 1-.99.999H2.99a.992.992 0 0 1-.99-.999V10s-2 .006-2 .01v.98C0 12.65 1.343 14 3 14h1v2h2v-2h1c1.651 0 3-1.347 3-3.01v-.98C10 8.35 8.657 7 7 7H2.99A.992.992 0 0 1 2 6.001V4.999A1 1 0 0 1 2.99 4h4.02c.546 0 .99.443.99.999V6s2-.006 2-.01v-.98C10 3.35 8.657 2 7 2H6V0H4v2H3C1.35 2 0 3.347 0 5.01v.98C0 7.65 1.343 9 3 9h4.01z" opacity=".9" fill="#39F" fill-rule="evenodd"/></svg>