<svg xmlns="http://www.w3.org/2000/svg" width="38" height="39"><defs><linearGradient id="prefix__a" x1="99.836%" x2="0%" y1="50%" y2="50%"><stop offset=".082%" stop-color="#FF91ED"/><stop offset="100%" stop-color="#FF559F"/></linearGradient><linearGradient id="prefix__b" x1="99.836%" x2="0%" y1="50%" y2="50%"><stop offset=".082%" stop-color="#FF91ED"/><stop offset="100%" stop-color="#FF559F"/></linearGradient></defs><g fill="none"><path fill="url(#prefix__a)" d="M50 36.25v7.34c0 2.23-.232 3.037-.668 3.852a4.543 4.543 0 0 1-1.89 1.89c-.815.436-1.623.668-3.852.668H18.91c-2.23 0-3.037-.232-3.852-.668a4.543 4.543 0 0 1-1.89-1.89c-.436-.815-.668-1.623-.668-3.852v-7.34h15v1.25a2.5 2.5 0 0 0 2.336 2.495L30 40h2.5a2.5 2.5 0 0 0 2.5-2.5v-1.25h15zm-6.41-8.75c2.23 0 3.037.232 3.852.668a4.543 4.543 0 0 1 1.89 1.89c.328.614.541 1.224.626 2.44H12.542c.085-1.216.298-1.826.626-2.44a4.543 4.543 0 0 1 1.89-1.89c.815-.436 1.623-.668 3.852-.668h24.68z" transform="translate(-12 -11)"/><path fill="url(#prefix__b)" d="M36.25 11.25a6.25 6.25 0 0 1 6.25 6.25v6.25h-3.75V17.5a2.5 2.5 0 0 0-2.336-2.495L36.25 15h-10a2.5 2.5 0 0 0-2.5 2.5v6.25H20V17.5a6.25 6.25 0 0 1 6.25-6.25h10z" transform="translate(-12 -11)"/></g></svg>