<svg xmlns="http://www.w3.org/2000/svg" xmlns:xlink="http://www.w3.org/1999/xlink" width="17.453" height="20"><defs><clipPath id="prefix__c"><path data-name="Path 3" d="M11.5-9a2 2 0 0 0 2-2 2 2 0 0 0-2-2 2 2 0 0 0-2 2 2 2 0 0 0 2 2z" fill="none"/></clipPath><linearGradient id="prefix__a" x1=".528" y1=".35" x2=".528" y2="51.55" gradientUnits="objectBoundingBox"><stop offset="0"/><stop offset="0" stop-color="#ff91ed"/><stop offset=".1" stop-color="#ff8be5"/><stop offset=".2" stop-color="#ff85dd"/><stop offset=".3" stop-color="#ff7fd6"/><stop offset=".4" stop-color="#ff79ce"/><stop offset=".5" stop-color="#ff73c6"/><stop offset=".6" stop-color="#ff6dbe"/><stop offset=".7" stop-color="#ff67b6"/><stop offset=".8" stop-color="#ff61af"/><stop offset=".9" stop-color="#ff5ba7"/><stop offset="1" stop-color="#ff559f"/><stop offset="1"/></linearGradient><linearGradient id="prefix__b" x1=".75" y1=".45" x2=".528" y2=".45" gradientUnits="objectBoundingBox"><stop offset="0" stop-color="#ff91ed"/><stop offset=".1" stop-color="#ff8be5"/><stop offset=".2" stop-color="#ff85dd"/><stop offset=".3" stop-color="#ff7fd6"/><stop offset=".4" stop-color="#ff79ce"/><stop offset=".5" stop-color="#ff73c6"/><stop offset=".6" stop-color="#ff6dbe"/><stop offset=".7" stop-color="#ff67b6"/><stop offset=".8" stop-color="#ff61af"/><stop offset=".9" stop-color="#ff5ba7"/><stop offset="1" stop-color="#ff559f"/></linearGradient><clipPath id="prefix__d"><path data-name="Path 6" d="M11.5-8q2.769 0 3.408 3.408a.5.5 0 0 1-.4.584.5.5 0 0 1-.091.008H13.5l-.757 3.03A1.281 1.281 0 0 1 11.5 0a1.281 1.281 0 0 1-1.243-.97L9.5-4h-.917a.5.5 0 0 1-.5-.5.5.5 0 0 1 .009-.092Q8.731-8 11.5-8z" fill="none"/></clipPath><linearGradient id="prefix__e" x1=".444" y1=".6" x2=".444" y2="51.8" xlink:href="#prefix__a"/><linearGradient id="prefix__f" x1=".833" y1=".8" x2=".444" y2=".8" xlink:href="#prefix__b"/><clipPath id="prefix__g"><path data-name="Path 9" d="M5.5-14.5A2.5 2.5 0 0 0 8-17a2.5 2.5 0 0 0-2.5-2.5A2.5 2.5 0 0 0 3-17a2.5 2.5 0 0 0 2.5 2.5z" fill="none"/></clipPath><linearGradient id="prefix__h" x1=".167" y1=".025" x2=".167" y2="51.225" xlink:href="#prefix__a"/><linearGradient id="prefix__i" x1=".444" y1=".15" x2=".167" y2=".15" xlink:href="#prefix__b"/><clipPath id="prefix__j"><path data-name="Path 12" d="M1.477-5.5H2.5l.642 3.532A2.4 2.4 0 0 0 5.5 0a2.4 2.4 0 0 0 2.358-1.968L8.5-5.5h1.023a1 1 0 0 0 1-1 1 1 0 0 0-.072-.371l-1.523-3.808A3.693 3.693 0 0 0 5.5-13a3.693 3.693 0 0 0-3.428 2.321L.549-6.871a1 1 0 0 0 .557 1.3 1 1 0 0 0 .371.071z" fill="none"/></clipPath><linearGradient id="prefix__k" x1="0" y1=".35" x2="0" y2="51.55" xlink:href="#prefix__a"/><linearGradient id="prefix__l" x1=".61" y1=".675" x2="0" y2=".675" xlink:href="#prefix__b"/><clipPath id="prefix__m"><path data-name="Path 15" d="M14.93-14.453a.52.52 0 0 0 .221-.082c1.7-1.088 2.779-2.353 2.779-3.64A1.709 1.709 0 0 0 16.247-20a1.477 1.477 0 0 0-1.317.825A1.475 1.475 0 0 0 13.612-20a1.709 1.709 0 0 0-1.683 1.825c0 1.287 1.079 2.553 2.782 3.64a.5.5 0 0 0 .219.082z" fill="none"/></clipPath><linearGradient id="prefix__n" x1=".663" x2=".663" y2="51.2" gradientUnits="objectBoundingBox"><stop offset="0"/><stop offset="0" stop-color="#ff2d36"/><stop offset=".1" stop-color="#ff3140"/><stop offset=".2" stop-color="#ff354b"/><stop offset=".3" stop-color="#ff3955"/><stop offset=".4" stop-color="#ff3d60"/><stop offset=".5" stop-color="#ff416b"/><stop offset=".6" stop-color="#ff4575"/><stop offset=".7" stop-color="#ff497f"/><stop offset=".8" stop-color="#ff4d8a"/><stop offset=".9" stop-color="#ff5194"/><stop offset="1" stop-color="#ff559f"/><stop offset="1"/></linearGradient><linearGradient id="prefix__o" x1=".663" y1=".139" x2=".996" y2=".139" gradientUnits="objectBoundingBox"><stop offset="0" stop-color="#ff2d36"/><stop offset=".1" stop-color="#ff3140"/><stop offset=".2" stop-color="#ff354b"/><stop offset=".3" stop-color="#ff3955"/><stop offset=".4" stop-color="#ff3d60"/><stop offset=".5" stop-color="#ff416b"/><stop offset=".6" stop-color="#ff4575"/><stop offset=".7" stop-color="#ff497f"/><stop offset=".8" stop-color="#ff4d8a"/><stop offset=".9" stop-color="#ff5194"/><stop offset="1" stop-color="#ff559f"/></linearGradient></defs><g data-name="Group 23"><g data-name="Group 5" clip-path="url(#prefix__c)" transform="translate(-.477 20)"><g data-name="Group 4"><g data-name="Group 3" opacity=".5"><path data-name="Path 2" d="M-9.5-7h18v20h-18z" fill="url(#prefix__b)" transform="translate(9.5 -13)"/></g></g></g><g data-name="Group 10" clip-path="url(#prefix__d)" transform="translate(-.477 20)"><g data-name="Group 9"><g data-name="Group 8" opacity=".5"><path data-name="Path 5" d="M-8-12h18V8H-8z" fill="url(#prefix__f)" transform="translate(8 -8)"/></g></g></g><g data-name="Group 14" clip-path="url(#prefix__g)" transform="translate(-.477 20)"><g data-name="Group 13"><path data-name="Path 8" d="M-3-.5h18v20H-3z" fill="url(#prefix__i)" transform="translate(3 -19.5)"/></g></g><g data-name="Group 18" clip-path="url(#prefix__j)" transform="translate(-.477 20)"><g data-name="Group 17"><path data-name="Path 11" d="M0-7h18v20H0z" fill="url(#prefix__l)" transform="translate(0 -13)"/></g></g><g data-name="Group 22" clip-path="url(#prefix__m)" transform="translate(-.477 20)"><g data-name="Group 21"><path data-name="Path 14" d="M-11.93 0h18v20h-18z" fill="url(#prefix__o)" transform="translate(11.93 -20)"/></g></g></g></svg>