<svg xmlns="http://www.w3.org/2000/svg" xmlns:xlink="http://www.w3.org/1999/xlink" width="62" height="35.684"><defs><clipPath id="prefix__c"><path data-name="Path 19" d="M13.5-15.4c3.583 0 6.5-3.118 6.5-7.087a6.726 6.726 0 0 0-6.5-6.913A6.74 6.74 0 0 0 7-22.469c.016 3.952 2.917 7.069 6.5 7.069zm9.742 15C26.065-.4 27-1.325 27-2.9c0-4.021-5.28-9.5-13.492-9.5C5.28-12.4 0-6.917 0-2.9 0-1.325.935-.4 3.757-.4z" fill="none"/></clipPath><clipPath id="prefix__d"><path data-name="Path 18" d="M-200 3234h1440V-998H-200z" fill="none"/></clipPath><linearGradient id="prefix__a" y1=".183" x2="0" y2="28.628" gradientUnits="objectBoundingBox"><stop offset="0"/><stop offset="0" stop-color="#ff91ed"/><stop offset=".1" stop-color="#ff8be5"/><stop offset=".2" stop-color="#ff85dd"/><stop offset=".3" stop-color="#ff7fd6"/><stop offset=".4" stop-color="#ff79ce"/><stop offset=".5" stop-color="#ff73c6"/><stop offset=".6" stop-color="#ff6dbe"/><stop offset=".7" stop-color="#ff67b6"/><stop offset=".8" stop-color="#ff61af"/><stop offset=".9" stop-color="#ff5ba7"/><stop offset="1" stop-color="#ff559f"/><stop offset="1"/></linearGradient><linearGradient id="prefix__b" x1=".435" y1=".586" x2="0" y2=".586" gradientUnits="objectBoundingBox"><stop offset="0" stop-color="#ff91ed"/><stop offset=".1" stop-color="#ff8be5"/><stop offset=".2" stop-color="#ff85dd"/><stop offset=".3" stop-color="#ff7fd6"/><stop offset=".4" stop-color="#ff79ce"/><stop offset=".5" stop-color="#ff73c6"/><stop offset=".6" stop-color="#ff6dbe"/><stop offset=".7" stop-color="#ff67b6"/><stop offset=".8" stop-color="#ff61af"/><stop offset=".9" stop-color="#ff5ba7"/><stop offset="1" stop-color="#ff559f"/></linearGradient><clipPath id="prefix__e"><path data-name="Path 23" d="M48.5-15.4c3.583 0 6.5-3.118 6.5-7.087a6.726 6.726 0 0 0-6.5-6.913 6.74 6.74 0 0 0-6.5 6.931c.016 3.952 2.917 7.069 6.5 7.069zm9.742 15C61.065-.4 62-1.325 62-2.9c0-4.021-5.28-9.5-13.492-9.5C40.28-12.4 35-6.917 35-2.9c0 1.571.935 2.5 3.757 2.5z" fill="none"/></clipPath><linearGradient id="prefix__f" x1=".565" y1=".183" x2=".565" y2="28.628" xlink:href="#prefix__a"/><linearGradient id="prefix__g" x1="1" y1=".586" x2=".565" y2=".586" xlink:href="#prefix__b"/><clipPath id="prefix__h"><path data-name="Path 27" d="M31.641-18.637c4.414 0 8.008-3.867 8.008-8.789A8.317 8.317 0 0 0 31.641-36c-4.395 0-8.027 3.867-8.008 8.594.019 4.906 3.594 8.769 8.008 8.769zM43.633-.316c3.477 0 4.629-1.152 4.629-3.105 0-5-6.5-11.816-16.621-11.816C21.5-15.238 15-8.422 15-3.422c0 1.953 1.152 3.105 4.629 3.105z" fill="none"/></clipPath><linearGradient id="prefix__i" x1=".242" y1="0" x2=".242" y2="28.444" xlink:href="#prefix__a"/><linearGradient id="prefix__j" x1=".777" y1=".496" x2=".242" y2=".496" xlink:href="#prefix__b"/></defs><g data-name="Group 41"><g data-name="Group 29" clip-path="url(#prefix__c)" transform="translate(0 36)"><g data-name="Group 28"><g data-name="Group 27" clip-path="url(#prefix__d)"><g data-name="Group 26" opacity=".5"><path data-name="Path 17" d="M0-6.6h62v36H0z" fill="url(#prefix__b)" transform="translate(0 -29.398)"/></g></g></g></g><g data-name="Group 35" clip-path="url(#prefix__e)" transform="translate(0 36)"><g data-name="Group 34"><g data-name="Group 33" clip-path="url(#prefix__d)"><g data-name="Group 32" opacity=".5"><path data-name="Path 21" d="M-35-6.6h62v36h-62z" fill="url(#prefix__g)" transform="translate(35 -29.398)"/></g></g></g></g><g data-name="Group 40" clip-path="url(#prefix__h)" transform="translate(0 36)"><g data-name="Group 39"><g data-name="Group 38" clip-path="url(#prefix__d)"><path data-name="Path 25" d="M-15 0h62v36h-62z" fill="url(#prefix__j)" transform="translate(15 -36)"/></g></g></g></g></svg>