<svg width="390" height="270" xmlns="http://www.w3.org/2000/svg" xmlns:xlink="http://www.w3.org/1999/xlink"><title>Group 6 Copy 4</title><defs><filter x="-26.2%" y="-41.2%" width="152.4%" height="182.4%" filterUnits="objectBoundingBox" id="prefix__a"><feOffset dy="15" in="SourceAlpha" result="shadowOffsetOuter1"/><feGaussianBlur stdDeviation="15" in="shadowOffsetOuter1" result="shadowBlurOuter1"/><feColorMatrix values="0 0 0 0 0.137254902 0 0 0 0 0.137254902 0 0 0 0 0.125490196 0 0 0 0.05 0" in="shadowBlurOuter1" result="shadowMatrixOuter1"/><feMerge><feMergeNode in="shadowMatrixOuter1"/><feMergeNode in="SourceGraphic"/></feMerge></filter><path d="M30.767 0h268.466c10.699 0 14.578 1.114 18.49 3.206 3.91 2.091 6.98 5.16 9.071 9.072 2.092 3.911 3.206 7.79 3.206 18.489v148.466c0 10.699-1.114 14.578-3.206 18.49-2.091 3.91-5.16 6.98-9.072 9.071-3.911 2.092-7.79 3.206-18.489 3.206H30.767c-10.699 0-14.578-1.114-18.49-3.206-3.91-2.091-6.98-5.16-9.071-9.072C1.114 193.811 0 189.932 0 179.233V30.767c0-10.699 1.114-14.578 3.206-18.49 2.091-3.91 5.16-6.98 9.072-9.071C16.189 1.114 20.068 0 30.767 0z" id="prefix__b"/><path d="M8.612 0l38.876 38.875c-5.014 5.304-12.114 8.613-19.988 8.613-15.188 0-27.5-12.312-27.5-27.5C0 12.114 3.309 5.013 8.612 0z" id="prefix__d"/><circle id="prefix__e" cx="27.768" cy="27.5" r="27.5"/></defs><g filter="url(#prefix__a)" transform="translate(30 15)" fill="none" fill-rule="evenodd"><mask id="prefix__c" fill="#fff"><use xlink:href="#prefix__b"/></mask><use fill="#FFF" xlink:href="#prefix__b"/><g mask="url(#prefix__c)"><path fill="#7E73FF" d="M330 103L220 213h110z"/><path d="M294.988 138.012l-38.876 38.876c5.013 5.303 12.114 8.612 19.988 8.612 15.188 0 27.5-12.312 27.5-27.5 0-7.874-3.31-14.975-8.612-19.988z" fill="#FF91ED"/><path fill="#0B1730" d="M220 213l110-110H220z"/><use fill="#FF559F" transform="matrix(1 0 0 -1 247.863 177.438)" xlink:href="#prefix__d"/><path fill="#0B1730" d="M110 103h110v110H110z"/><path fill="#202D4A" d="M110 103h110L110 213z"/><path d="M331.172-8.1L147.4 175.672h38.892L350.618 11.345 331.172-8.1z" fill="#FF91ED"/><path d="M410.17-48.8L258.5 102.87h38.892L429.616-29.355 410.171-48.8z" fill="#FF559F"/><path d="M332.62-48.8L180.95 102.87h38.892L352.066-29.355 332.621-48.8z" fill="#0B1730"/><path fill="#202D4A" d="M218.9 65.05h-37.95V103h37.95z"/><path d="M448.12-48.8L296.45 102.87h38.892L467.566-29.355 448.121-48.8z" fill="#0B1730"/><path d="M280.849-35.876L218.9 26.073h28.795v10.095l52.6-52.599-19.446-19.445z" fill="#FF91ED"/><path d="M221.346 23.627L141.9 103.072h38.89l60-60-19.445-19.445z" fill="#7E73FF"/><path d="M297.586 25.255c-21.479-21.48-56.303-21.48-77.781 0-21.48 21.478-21.48 56.302 0 77.781M254.175 140.95L110 285.122h38.89L293.065 140.95h-38.89z" fill="#FF559F"/><path fill="#0B1730" d="M110 103L0 213h110z"/><path d="M110.55 135.06c-21.479 21.478-21.479 56.302 0 77.78l38.89-38.89-38.89-38.89z" fill="#202D4A"/><g transform="matrix(-1 0 0 1 192.768 130.5)"><mask id="prefix__f" fill="#fff"><use xlink:href="#prefix__e"/></mask><use fill="#7E73FF" xlink:href="#prefix__e"/><path d="M-83.405-83.6L82.768 82.572H43.876L-102.85-64.155-83.405-83.6z" fill="#FF91ED" mask="url(#prefix__f)"/></g><path d="M104.025 103L-40.15 247.172h38.89L142.915 103h-38.89z" fill="#FF559F"/></g><path d="M112 27v21.25H27V27h85zm-21.68 5.127c-.73 0-1.43.114-2.098.34a5.77 5.77 0 0 0-1.816 1.008c-.543.444-.978 1.037-1.308 1.779-.329.742-.494 1.577-.494 2.505 0 .889.165 1.686.494 2.393.33.706.77 1.271 1.323 1.695a6.188 6.188 0 0 0 1.831.97 6.613 6.613 0 0 0 2.098.332c1.115 0 2.143-.227 3.086-.68v-2.227c-.649.586-1.561.879-2.736.879a4.63 4.63 0 0 1-1.376-.205 4.051 4.051 0 0 1-1.2-.598 2.767 2.767 0 0 1-.86-1.052c-.212-.44-.319-.941-.319-1.507 0-1.19.368-2.092 1.102-2.702.735-.61 1.619-.916 2.653-.916 1.053 0 1.94.277 2.66.833v-2.166c-.912-.454-1.926-.68-3.04-.68zm-51.767.212H34.54v10.599h2.28v-3.483h1.733c3.06 0 4.59-1.186 4.59-3.558s-1.53-3.558-4.59-3.558zm11.554 0H45.73v10.599h2.28v-3.71h1.672l2.872 3.71h2.63l-3.177-3.998c1.55-.494 2.326-1.544 2.326-3.149 0-.646-.12-1.201-.358-1.665a2.61 2.61 0 0 0-.988-1.075 4.665 4.665 0 0 0-1.337-.545 6.723 6.723 0 0 0-1.543-.167zm9.7 0h-2.28v10.599h2.28V32.338zm4.974 0h-2.463l4.135 10.599h2.34l4.15-10.599h-2.462l-2.858 7.934-2.842-7.934zm14.612 0H76.93l-4.347 10.599h2.356l.79-1.984h4.865l.775 1.983h2.356L79.393 32.34zm18.126 0H94.95l4.165 6.844v3.755h2.265v-3.755l4.15-6.844h-2.57l-2.72 4.754-2.721-4.754zm-19.357 2.105c.05.272.126.55.228.832l1.49 3.8h-3.436l1.474-3.8c.102-.242.183-.52.244-.832zm-39.503-.106c1.439 0 2.158.52 2.158 1.56 0 1.039-.72 1.559-2.158 1.559h-1.84v-3.12zm11.555 0c.526 0 .957.12 1.291.363.335.242.502.62.502 1.136 0 .504-.17.88-.51 1.128-.339.247-.767.37-1.283.37H48.01v-2.997z" fill="#0B1730" mask="url(#prefix__c)"/></g></svg>