<svg width="30" height="30" xmlns="http://www.w3.org/2000/svg"><title>Group 3</title><defs><linearGradient x1="100%" y1="0%" x2="-12.764%" y2="124.839%" id="prefix__a"><stop stop-color="#4101F9" stop-opacity=".054" offset="0%"/><stop stop-color="#202D4A" offset="100%"/></linearGradient><linearGradient x1="100%" y1="50%" x2="-19.746%" y2="50%" id="prefix__b"><stop stop-color="#FF559F" stop-opacity=".393" offset="0%"/><stop stop-color="#FF559F" offset="100%"/></linearGradient><linearGradient x1="100%" y1="50%" x2="-19.746%" y2="50%" id="prefix__c"><stop stop-color="#9F01D8" stop-opacity=".294" offset="0%"/><stop stop-color="#BD00FF" offset="100%"/></linearGradient></defs><g fill="none" fill-rule="evenodd"><path d="M10.256 0h9.488c3.567 0 4.86.371 6.163 1.069a7.27 7.27 0 0 1 3.024 3.024C29.63 5.396 30 6.689 30 10.256v9.488c0 3.567-.371 4.86-1.069 6.163a7.27 7.27 0 0 1-3.024 3.024C24.604 29.63 23.311 30 19.744 30h-9.488c-3.567 0-4.86-.371-6.163-1.069a7.27 7.27 0 0 1-3.024-3.024C.37 24.604 0 23.311 0 19.744v-9.488c0-3.567.371-4.86 1.069-6.163a7.27 7.27 0 0 1 3.024-3.024C5.396.37 6.689 0 10.256 0z" fill="url(#prefix__a)"/><g transform="translate(6 8)"><path d="M7.564 0h8.872c.892 0 1.215.093 1.54.267.327.174.583.43.757.756.174.326.267.65.267 1.54v4.873c0 .892-.093 1.215-.267 1.54-.174.327-.43.583-.756.757-.326.174-.65.267-1.54.267H7.563c-.892 0-1.215-.093-1.54-.267a1.817 1.817 0 0 1-.757-.756C5.093 8.65 5 8.327 5 7.437V2.563c0-.892.093-1.215.267-1.54.174-.327.43-.583.756-.757C6.35.093 6.673 0 7.563 0z" fill="url(#prefix__b)"/><path d="M2.564 5h8.872c.892 0 1.215.093 1.54.267.327.174.583.43.757.756.174.326.267.65.267 1.54v4.873c0 .892-.093 1.215-.267 1.54-.174.327-.43.583-.756.757-.326.174-.65.267-1.54.267H2.563c-.892 0-1.215-.093-1.54-.267a1.817 1.817 0 0 1-.757-.756C.093 13.65 0 13.327 0 12.437V7.563c0-.892.093-1.215.267-1.54.174-.327.43-.583.756-.757.326-.174.65-.267 1.54-.267z" fill="url(#prefix__c)" opacity=".604"/><path d="M8.255 5h.49c.413 0 .58.046.743.134.163.087.291.215.378.378.088.163.134.33.134.743v.49c0 .413-.046.58-.134.743a.909.909 0 0 1-.378.378c-.163.088-.33.134-.743.134h-.49c-.413 0-.58-.046-.743-.134a.909.909 0 0 1-.378-.378C7.046 7.325 7 7.158 7 6.745v-.49c0-.413.046-.58.134-.743a.909.909 0 0 1 .378-.378c.163-.088.33-.134.743-.134z" fill="#0B1730"/><rect fill="#0B1730" x="7" y="2" width="6" height="2" rx="1"/></g></g></svg>